<?xml version="1.0" standalone="no"?>
<!DOCTYPE svg PUBLIC "-//W3C//DTD SVG 1.1//EN" "http://www.w3.org/Graphics/SVG/1.1/DTD/svg11.dtd">
<svg 
  height="1024" 
  node-id="1" 
  sillyvg="true" 
  template-height="1024" 
  template-width="1024" 
  version="1.1" 
  viewBox="0 0 1024 1024" 
  width="1024" 
  xmlns="http://www.w3.org/2000/svg" 
  xmlns:xlink="http://www.w3.org/1999/xlink">
  <defs node-id="15"></defs>
  <g node-id="34">
    <g node-id="35">
      <path 
        d="M 338.83 276.25 C 338.83 276.25 392.38 222.70 480.01 292.07 C 567.64 361.44 588.33 356.57 655.26 367.53 C 722.20 378.48 836.90 514.18 692.08 657.79 C 547.25 801.40 494.23 763.30 492.18 761.85 C 450.80 732.34 494.01 647.75 305.97 658.71 C 225.34 645.32 274.86 551.21 304.14 519.06 C 372.29 444.21 248.46 367.54 338.83 276.26 Z" 
        fill="#ffffff" 
        fill-rule="nonzero" 
        group-id="1,2" 
        node-id="22" 
        stroke="none" 
        target-height="578.7" 
        target-width="611.56" 
        target-x="225.34001" 
        target-y="222.7"></path>
      <path 
        d="M 393.65 256.52 C 416.38 256.52 445.56 264.79 480.01 292.06 C 567.64 361.43 588.33 356.56 655.26 367.52 C 722.20 378.47 836.90 514.17 692.08 657.78 C 598.59 750.48 543.35 767.47 515.39 767.47 C 500.03 767.47 492.91 762.35 492.19 761.83 C 453.30 734.09 489.12 657.71 337.49 657.71 C 327.78 657.71 317.30 658.02 305.99 658.68 C 225.36 645.29 274.88 551.18 304.16 519.03 C 372.31 444.18 248.48 367.51 338.85 276.23 C 338.85 276.23 358.58 256.51 393.67 256.51 M 393.65 245.80 L 393.65 256.53 L 393.65 245.80 C 354.56 245.80 332.18 267.73 331.25 268.66 C 331.24 268.67 331.22 268.69 331.21 268.70 C 307.74 292.40 295.52 317.58 293.83 345.68 C 292.37 369.99 298.82 392.65 305.06 414.57 C 315.24 450.36 324.04 481.26 296.22 511.82 C 276.46 533.52 240.29 591.66 254.59 632.89 C 259.31 646.51 271.76 663.88 304.22 669.27 C 304.80 669.37 305.39 669.41 305.98 669.41 C 306.19 669.41 306.40 669.41 306.60 669.39 C 317.47 668.76 327.86 668.44 337.48 668.44 C 436.09 668.44 448.35 700.15 460.21 730.82 C 465.82 745.34 471.63 760.35 485.96 770.57 C 489.18 772.87 498.48 778.20 515.39 778.20 C 547.55 778.20 605.61 758.63 699.63 665.40 C 733.71 631.60 756.17 595.87 766.38 559.21 C 775.29 527.21 774.79 495.32 764.91 464.42 C 753.72 429.41 733.54 405.17 718.58 391.00 C 699.14 372.58 676.69 360.16 656.99 356.94 C 648.68 355.58 641.23 354.49 634.03 353.43 C 584.07 346.08 561.27 342.73 486.66 283.66 C 454.93 258.54 423.63 245.80 393.65 245.80 L 393.65 245.80 Z" 
        fill="#523510" 
        fill-rule="nonzero" 
        group-id="1,2" 
        node-id="24" 
        stroke="#523510"
        stroke-width="10" 
        target-height="532.4" 
        target-width="611.54004" 
        target-x="225.36" 
        target-y="245.8"></path>
      <path 
        d="M 633.66 516.76 C 633.66 577.51 584.42 626.75 523.67 626.75 C 462.92 626.75 413.68 577.51 413.68 516.76 C 413.68 456.01 462.92 406.77 523.67 406.77 C 584.42 406.77 633.66 456.01 633.66 516.76 Z" 
        fill="#ff8904" 
        fill-rule="nonzero" 
        group-id="1,2" 
        node-id="26" 
        stroke="none" 
        target-height="219.97998" 
        target-width="219.97998" 
        target-x="413.68" 
        target-y="406.77002"></path>
      <g node-id="36">
        <path 
          d="M 584.37 534.56 C 584.37 534.56 559.73 586.59 486.70 569.25" 
          fill="none" 
          group-id="1,2,3" 
          node-id="30" 
          stroke="#ffffff" 
          stroke-linecap="round" 
          stroke-width="10.73" 
          target-height="52.03003" 
          target-width="97.66995" 
          target-x="486.70004" 
          target-y="534.56"></path>
        <path 
          d="M 593.34 498.81 L 591.74 512.96" 
          fill="none" 
          group-id="1,2,3" 
          node-id="32" 
          stroke="#ffffff" 
          stroke-linecap="round" 
          stroke-width="10.73" 
          target-height="14.150055" 
          target-width="1.6000366" 
          target-x="591.74" 
          target-y="498.80997"></path>
      </g>
    </g>
  </g>
</svg>